<?xml version="1.0" encoding="utf-8"?>
<!-- Generator: Adobe Illustrator 26.0.2, SVG Export Plug-In . SVG Version: 6.00 Build 0)  -->
<svg version="1.1" id="Layer_1" focusable="false" xmlns="http://www.w3.org/2000/svg" xmlns:xlink="http://www.w3.org/1999/xlink"
	 x="0px" y="0px" viewBox="0 0 104.4 31.1" style="enable-background:new 0 0 104.4 31.1;" xml:space="preserve">
<style type="text/css">
	.st0{fill:#FFFFFF;stroke:#FFFFFF;stroke-width:1.393532e-02;stroke-miterlimit:10;}
	.st1{fill:#FFFFFF;}
	.st2{fill:#FFFFFF;stroke:#FFFFFF;stroke-width:9.852271e-03;stroke-miterlimit:10;}
</style>
<g transform="matrix(1 0 0 -1 0 0)">
	<g>
		<path id="E1-MJMATHI-41" class="st0" d="M2.9-19c0-0.2,0.2-0.4,0.6-0.4c0.2,0,0.3-0.1,0.3-0.2c0,0,0-0.1,0-0.2
			c0-0.1-0.1-0.2-0.1-0.3S3.6-20,3.5-20c0,0-0.1,0-0.2,0s-0.3,0-0.5,0c-0.2,0-0.5,0-0.9,0c-0.7,0-1.1,0-1.3,0H0.6
			c-0.1,0.1-0.1,0.1-0.1,0.2c0,0.3,0.1,0.4,0.2,0.5h0.2c0.7,0,1.1,0.3,1.4,0.7c0.1,0.1,0.9,1.5,2.5,4.3s2.5,4.2,2.5,4.2
			c0.1,0.1,0.2,0.2,0.3,0.2h0.1H8c0.1-0.1,0.1-0.1,0.1-0.1l0.4-4.5c0.3-3,0.4-4.5,0.4-4.5c0-0.1,0.3-0.2,0.9-0.2
			c0.2,0,0.3,0,0.3-0.1c0,0,0-0.1,0-0.2c0-0.1-0.1-0.2-0.1-0.3c0,0-0.1,0-0.2-0.1c0,0-0.1,0-0.2,0c-0.1,0-0.3,0-0.5,0s-0.6,0-1,0
			c-0.9,0-1.4,0-1.7,0H6.2c-0.1,0.1-0.1,0.1-0.1,0.1s0,0.1,0,0.3c0,0.1,0.1,0.2,0.1,0.2l0.1,0h0.3c0.5,0,0.8,0.1,0.9,0.2l-0.2,2.1
			H3.9l-0.5-0.8C3.1-18.5,2.9-18.9,2.9-19z M7.2-16.4c0,0.1-0.1,0.8-0.2,2.2s-0.2,2-0.2,2l-0.4-0.6C6.3-13,6-13.5,5.6-14.3l-1.3-2.1
			l1.4,0C6.7-16.4,7.2-16.4,7.2-16.4z"/>
	</g>
	<g>
		<path id="E1-MJMAIN-3D" class="st0" d="M15.1-15.2c0,0.1,0.1,0.2,0.2,0.3h8.9c0.1-0.1,0.2-0.2,0.2-0.3c0-0.1-0.1-0.2-0.2-0.3
			l-4.4,0h-4.4C15.2-15.4,15.1-15.3,15.1-15.2z M15.1-17.9c0,0.1,0.1,0.2,0.2,0.3h8.9c0.1-0.1,0.2-0.2,0.2-0.3
			c0-0.1-0.1-0.2-0.2-0.3h-8.9C15.2-18.1,15.1-18,15.1-17.9z"/>
	</g>
	<g>
		<path id="E1-MJMATHI-50" class="st0" d="M33-11.3c0,0.1-0.3,0.1-0.8,0.1c-0.2,0-0.4,0-0.4,0c-0.1,0-0.1,0.1-0.1,0.1
			c0,0,0,0.1,0,0.2c0.1,0.2,0.1,0.3,0.1,0.3c0,0,0.9,0,2.7,0c1.8,0,2.7,0,2.8,0c0.6-0.1,1.1-0.3,1.5-0.7c0.4-0.4,0.6-0.8,0.6-1.4
			c0-0.7-0.3-1.4-0.9-2c-0.6-0.6-1.5-1-2.5-1.2c-0.1,0-0.6,0-1.5,0h-1.3l-0.4-1.7c-0.3-1.1-0.4-1.6-0.4-1.7c0,0,0-0.1,0-0.1
			c0,0,0,0,0.1-0.1s0.1,0,0.2,0s0.3,0,0.5,0h0.4c0.1-0.1,0.1-0.1,0.1-0.2c0-0.1,0-0.3-0.1-0.4c0,0-0.1-0.1-0.2-0.1c0,0-0.2,0-0.5,0
			c-0.3,0-0.8,0-1.4,0c-0.6,0-1,0-1.3,0c-0.3,0-0.5,0-0.5,0c-0.2,0-0.3,0-0.3,0.1c0,0,0,0.1,0,0.2c0,0.1,0.1,0.2,0.1,0.3
			c0,0,0.1,0,0.3,0c0.3,0,0.5,0,0.8,0c0.1,0,0.2,0.1,0.3,0.2c0,0,0.4,1.3,1,3.9S33-11.4,33-11.3z M38-12.3c0,0.1,0,0.2,0,0.3
			c0,0.1-0.1,0.2-0.1,0.3s-0.2,0.2-0.3,0.3c-0.2,0.1-0.4,0.1-0.7,0.2c-0.1,0-0.4,0-1.1,0c-0.2,0-0.3,0-0.5,0c-0.2,0-0.3,0-0.4,0
			c-0.1,0-0.2,0-0.2,0c-0.1,0-0.2-0.1-0.3-0.1c0-0.1-0.1-0.4-0.3-1.1c-0.2-0.7-0.3-1.3-0.5-1.9c-0.2-0.6-0.3-0.9-0.3-0.9
			c0,0,0.4,0,1.1,0h0.2H35c1,0,1.8,0.2,2.2,0.7c0.3,0.3,0.4,0.6,0.6,1.1C38-13,38-12.6,38-12.3z"/>
	</g>
	<g transform="translate(2836,0)">
		<g>
			<path id="E1-MJSZ2-28" class="st0" d="M-2794-18.7c0,0,0,0.7,0,2.1s0.1,2.8,0.3,4.1c0.2,1.3,0.5,2.3,0.9,3.2s0.7,1.7,1.2,2.4
				s0.9,1.3,1.3,1.7c0.4,0.4,0.8,0.8,1.2,1.1h0.4c0.1-0.1,0.1-0.1,0.1-0.1c0,0-0.1-0.1-0.2-0.3s-0.3-0.4-0.6-0.7
				c-0.2-0.3-0.5-0.6-0.8-1.1c-0.3-0.4-0.6-1-0.9-1.6c-0.3-0.7-0.5-1.4-0.8-2.2c-0.3-0.8-0.4-1.8-0.6-2.9s-0.2-2.4-0.2-3.7
				c0-1.1,0-2,0.1-2.7c0.1-1.3,0.3-2.6,0.6-3.7s0.6-2,1-2.7c0.4-0.7,0.7-1.3,1.1-1.8s0.6-0.8,0.9-1.1c0.2-0.2,0.3-0.4,0.3-0.4
				c0,0,0-0.1-0.1-0.1h-0.4c-0.4,0.3-0.8,0.7-1.2,1.1c-0.4,0.4-0.8,1-1.3,1.7c-0.5,0.8-0.9,1.6-1.2,2.4c-0.3,0.9-0.6,1.9-0.9,3.2
				L-2794-18.7z"/>
		</g>
		<g transform="translate(597,0)">
			<g>
				<path id="E1-MJMAIN-31" class="st0" d="M-3382.2-12l-0.2-0.1c-0.1,0-0.3-0.1-0.6-0.1s-0.5-0.1-0.8-0.1h-0.3v0.6h0.3
					c0.4,0,0.8,0.1,1.2,0.2s0.6,0.2,0.8,0.3c0.1,0.1,0.3,0.2,0.4,0.3c0,0,0.1,0,0.2,0c0.1,0,0.2,0,0.2-0.1V-15l0-4.2
					c0.1-0.1,0.1-0.1,0.2-0.1c0,0,0.2,0,0.3-0.1c0.2,0,0.5,0,0.9,0h0.4V-20h-0.2c-0.2,0-0.9,0-2.2,0c-1.3,0-2,0-2.2,0h-0.2v0.6h0.4
					c0.2,0,0.4,0,0.5,0c0.1,0,0.3,0,0.3,0c0.1,0,0.2,0,0.2,0c0.1,0,0.1,0,0.1,0s0,0,0.1,0.1s0.1,0.1,0.1,0.1V-12z"/>
			</g>
			<g>
				<path id="E1-MJMAIN-2B" class="st0" d="M-3374.3-16.7c0,0,0,0.1,0,0.2s0.1,0.2,0.2,0.3h4.2v2.1l0,2.1c0.1,0.1,0.2,0.2,0.3,0.2
					c0.1,0,0.2-0.1,0.3-0.2v-4.2h4.2c0.1-0.1,0.2-0.2,0.2-0.3s-0.1-0.2-0.2-0.3h-4.2V-21c-0.1-0.1-0.2-0.2-0.3-0.2h0h0
					c-0.1,0-0.2,0.1-0.3,0.2v4.2h-4.2c-0.1,0.1-0.2,0.2-0.2,0.3V-16.7z"/>
			</g>
			<g transform="translate(1723,0)">
				<g transform="translate(120,0)">
					<rect x="-5202.5" y="-16.1" class="st1" width="10" height="-0.8"/>
					<g>
						<path id="E1-MJMATHI-72" class="st0" d="M-5200.3-6.6c0,0,0,0.1,0,0.1c0,0,0,0.1,0.1,0.3s0.1,0.3,0.1,0.4
							c0.1,0.1,0.1,0.3,0.2,0.5c0.1,0.2,0.2,0.3,0.3,0.4c0.1,0.1,0.2,0.2,0.4,0.3c0.1,0.1,0.3,0.1,0.5,0.1c0.3,0,0.5-0.1,0.7-0.2
							c0.2-0.1,0.3-0.2,0.4-0.3c0.1-0.1,0.1-0.2,0.2-0.3c0-0.1,0-0.1,0-0.1s0,0,0.1,0.1c0.4,0.5,1,0.7,1.5,0.7h0
							c0.4,0,0.8-0.2,1-0.6c0.1-0.2,0.1-0.3,0.1-0.5c0-0.3-0.1-0.5-0.2-0.7s-0.2-0.3-0.4-0.3c-0.1,0-0.2-0.1-0.3-0.1
							c-0.2,0-0.3,0.1-0.4,0.2c-0.1,0.1-0.2,0.2-0.2,0.4c0,0.4,0.3,0.7,0.8,0.9c-0.2,0.1-0.4,0.2-0.5,0.2c-0.5,0-1-0.3-1.4-1
							c-0.1-0.1-0.2-0.3-0.2-0.5s-0.2-0.8-0.5-1.9c-0.3-1.3-0.5-2-0.5-2.1c-0.1-0.3-0.3-0.4-0.6-0.4c-0.1,0-0.2,0-0.3,0.1
							s-0.1,0.1-0.2,0.2s0,0.1,0,0.1c0,0.1,0.2,0.9,0.6,2.4s0.6,2.3,0.6,2.5c0,0.4-0.1,0.5-0.4,0.5c-0.2,0-0.4-0.1-0.5-0.4
							c-0.1-0.3-0.3-0.5-0.3-0.9c-0.1-0.3-0.1-0.5-0.2-0.5c0,0-0.1,0-0.2,0h-0.2C-5200.3-6.7-5200.3-6.6-5200.3-6.6z"/>
					</g>
					<g>
						<path id="E1-MJMATHI-6E" class="st0" d="M-5201.3-25.6c0,0.1,0,0.1,0,0.2c0,0.1,0.1,0.3,0.2,0.5c0.1,0.3,0.2,0.5,0.3,0.7
							s0.2,0.3,0.5,0.5c0.2,0.2,0.4,0.2,0.6,0.2c0.3,0,0.6-0.1,0.8-0.3c0.2-0.2,0.4-0.3,0.4-0.5c0.1-0.1,0.1-0.2,0.1-0.3
							c0,0,0,0,0,0l0.2,0.2c0.6,0.6,1.2,0.9,1.9,0.9c0.5,0,0.9-0.1,1.2-0.4s0.5-0.6,0.5-1.1s-0.2-1.2-0.5-2.2
							c-0.4-1-0.5-1.6-0.5-1.8c0-0.2,0.1-0.4,0.2-0.4c0.1,0,0.1,0,0.1,0c0.3,0,0.5,0.2,0.7,0.5c0.2,0.3,0.4,0.7,0.5,1.1
							c0,0.1,0.1,0.1,0.3,0.1c0.2,0,0.3,0,0.3-0.1c0,0,0-0.1-0.1-0.2c-0.1-0.3-0.2-0.5-0.3-0.8c-0.1-0.3-0.3-0.5-0.6-0.8
							s-0.6-0.4-1-0.4c-0.4,0-0.8,0.1-0.9,0.4c-0.2,0.3-0.3,0.5-0.3,0.8c0,0.2,0.2,0.7,0.5,1.7c0.3,0.9,0.5,1.6,0.5,2.1
							c0,0.5-0.2,0.8-0.6,0.8h-0.1c-0.8,0-1.5-0.5-2-1.4l-0.1-0.2l-0.5-1.9c-0.3-1.2-0.5-1.9-0.5-2c-0.1-0.3-0.3-0.4-0.6-0.4
							c-0.1,0-0.2,0-0.3,0.1c-0.1,0.1-0.1,0.1-0.2,0.2c0,0.1,0,0.1,0,0.1c0,0.1,0.2,0.9,0.5,2.3s0.5,2.2,0.6,2.3c0,0,0,0.2,0,0.3
							c0,0.4-0.1,0.5-0.3,0.5c-0.4,0-0.6-0.5-0.9-1.4c-0.1-0.2-0.1-0.3-0.1-0.3c0-0.1-0.1-0.1-0.3-0.1h-0.2
							C-5201.3-25.7-5201.3-25.6-5201.3-25.6z"/>
					</g>
				</g>
			</g>
		</g>
		<g>
			<path id="E1-MJSZ2-29" class="st0" d="M-2750.3-4.2c0,0.1,0.1,0.2,0.2,0.2h0.1h0.2c0.4-0.3,0.8-0.7,1.2-1.1
				c0.4-0.4,0.8-1,1.3-1.7s0.9-1.6,1.2-2.4s0.6-1.9,0.9-3.2c0.2-1.3,0.3-2.6,0.3-4.1c0-1.4-0.1-2.8-0.3-4c-0.2-1.3-0.5-2.3-0.9-3.2
				c-0.3-0.9-0.7-1.7-1.2-2.4c-0.5-0.7-0.9-1.3-1.3-1.7c-0.4-0.4-0.7-0.8-1.2-1.1h-0.2c-0.1,0-0.2,0-0.2,0s-0.1,0.1-0.1,0.1
				c0.3,0.3,0.6,0.7,1,1.2c1.6,2.2,2.6,5,2.9,8.4c0.1,0.7,0.1,1.6,0.1,2.7c0,1.1,0,2-0.1,2.7c-0.4,4-1.6,7.2-3.7,9.4
				C-2750.2-4.3-2750.3-4.2-2750.3-4.2z"/>
		</g>
		<g transform="translate(3878,877)">
			<g transform="scale(0.707)">
				<path id="E1-MJMATHI-6E_00000134244731481395589360000008585142969461831851_" class="st2" d="M-6620.2-882c0,0,0,0.1,0,0.2
					s0.1,0.2,0.1,0.4c0.1,0.2,0.1,0.3,0.2,0.5c0.1,0.1,0.2,0.2,0.3,0.4c0.2,0.1,0.3,0.2,0.5,0.2c0.2,0,0.4-0.1,0.6-0.2
					s0.3-0.2,0.3-0.3c0-0.1,0.1-0.2,0.1-0.2c0,0,0,0,0,0l0.1,0.1c0.4,0.4,0.9,0.6,1.4,0.6c0.4,0,0.6-0.1,0.9-0.3s0.3-0.4,0.3-0.8
					c0-0.3-0.1-0.9-0.4-1.5s-0.4-1.1-0.4-1.3c0-0.2,0.1-0.3,0.2-0.3c0,0,0.1,0,0.1,0c0.2,0,0.4,0.2,0.5,0.4s0.3,0.5,0.3,0.8
					c0,0.1,0.1,0.1,0.2,0.1c0.1,0,0.2,0,0.2-0.1c0,0,0-0.1,0-0.1c-0.1-0.2-0.1-0.4-0.2-0.6c-0.1-0.2-0.2-0.4-0.5-0.6
					c-0.2-0.2-0.4-0.3-0.7-0.3c-0.3,0-0.5,0.1-0.7,0.3c-0.1,0.2-0.2,0.4-0.2,0.6c0,0.1,0.1,0.5,0.4,1.2s0.4,1.2,0.4,1.5
					c0,0.4-0.1,0.6-0.4,0.6h0c-0.6,0-1-0.3-1.4-1l-0.1-0.1l-0.3-1.3c-0.2-0.9-0.3-1.3-0.4-1.4c-0.1-0.2-0.2-0.3-0.4-0.3
					c-0.1,0-0.2,0-0.2,0.1c-0.1,0-0.1,0.1-0.1,0.1s0,0.1,0,0.1c0,0.1,0.1,0.6,0.4,1.6s0.4,1.5,0.4,1.6c0,0,0,0.1,0,0.2
					c0,0.3-0.1,0.4-0.2,0.4c-0.2,0-0.5-0.3-0.6-1c0-0.1-0.1-0.2-0.1-0.2c0,0-0.1-0.1-0.2-0.1L-6620.2-882
					C-6620.2-882-6620.2-882-6620.2-882z"/>
			</g>
			<g transform="scale(0.707)">
				<path id="E1-MJMATHI-74" class="st2" d="M-6614.3-881C-6614.3-881-6614.3-880.9-6614.3-881c-0.1,0.1-0.1,0.2,0,0.3
					c0,0.1,0,0.1,0,0.1c0,0,0,0,0.1,0s0.2,0,0.5,0h0.5l0.2,0.8c0,0.1,0,0.2,0.1,0.3c0,0.1,0,0.2,0.1,0.3c0,0.1,0,0.1,0.1,0.2
					c0,0.1,0,0.1,0.1,0.2s0.1,0.1,0.1,0.1s0.1,0.1,0.1,0.1s0.1,0,0.2,0c0.1,0,0.2,0,0.2-0.1s0.1-0.1,0.1-0.2c0,0,0-0.2-0.1-0.5
					c-0.1-0.3-0.1-0.5-0.2-0.8l-0.1-0.4c0,0,0.2,0,0.5,0h0.5c0,0,0.1-0.1,0.1-0.1c0-0.1,0-0.3-0.1-0.3h-1.1l-0.4-1.4
					c-0.3-1.1-0.4-1.6-0.4-1.7c0-0.3,0.1-0.4,0.3-0.4c0.2,0,0.5,0.1,0.7,0.3s0.4,0.5,0.5,0.8c0,0,0,0.1,0,0.1c0,0,0.1,0,0.1,0h0
					c0.1,0,0.1,0,0.1-0.1c0,0,0-0.1,0-0.1c0-0.1-0.1-0.2-0.2-0.4c-0.1-0.1-0.2-0.3-0.3-0.5c-0.1-0.2-0.3-0.3-0.5-0.4
					c-0.2-0.1-0.4-0.2-0.6-0.2c-0.2,0-0.4,0-0.6,0.1c-0.2,0.1-0.3,0.3-0.4,0.5c0,0.1,0,0.1,0,0.3v0.2l0.3,1.4
					c0.2,0.9,0.3,1.4,0.4,1.4c0,0-0.2,0-0.5,0H-6614.3z"/>
			</g>
		</g>
	</g>
</g>
</svg>
